<?xml version="1.0" encoding="UTF-8"?>
<svg xmlns="http://www.w3.org/2000/svg" xmlns:xlink="http://www.w3.org/1999/xlink" width="44px" height="52px" viewBox="0 0 44 52" version="1.1">
<g id="surface1">
<path style=" stroke:none;fill-rule:nonzero;fill:rgb(0%,26.666667%,50.980392%);fill-opacity:1;" d="M 43.378906 16.097656 C 43.394531 15.355469 43.214844 14.617188 42.855469 13.964844 C 42.484375 13.332031 41.953125 12.8125 41.308594 12.457031 C 35.613281 9.171875 29.917969 5.894531 24.222656 2.617188 C 22.6875 1.730469 21.199219 1.765625 19.675781 2.664062 C 17.410156 3.992188 6.0625 10.496094 2.679688 12.453125 C 1.289062 13.261719 0.609375 14.492188 0.609375 16.097656 L 0.609375 35.902344 C 0.597656 36.632812 0.769531 37.351562 1.113281 37.996094 C 1.484375 38.648438 2.027344 39.183594 2.6875 39.546875 C 6.066406 41.511719 17.417969 48.003906 19.683594 49.339844 C 21.207031 50.238281 22.695312 50.273438 24.230469 49.386719 C 29.921875 46.101562 35.621094 42.820312 41.320312 39.542969 C 41.976562 39.183594 42.519531 38.648438 42.890625 37.996094 C 43.234375 37.351562 43.410156 36.628906 43.394531 35.902344 L 43.394531 16.097656 Z M 43.378906 16.097656 "/>
<path style=" stroke:none;fill-rule:nonzero;fill:rgb(0%,34.901961%,61.176471%);fill-opacity:1;" d="M 43.382812 35.902344 C 43.398438 36.632812 43.222656 37.351562 42.878906 37.996094 C 42.796875 38.152344 42.699219 38.296875 42.59375 38.4375 L 21.996094 26 L 41.308594 12.457031 C 41.949219 12.8125 42.484375 13.332031 42.855469 13.964844 C 43.214844 14.617188 43.394531 15.355469 43.378906 16.097656 C 43.382812 22.699219 43.382812 35.902344 43.382812 35.902344 Z M 43.382812 35.902344 "/>
<path style=" stroke:none;fill-rule:nonzero;fill:rgb(39.607843%,60.392157%,82.352941%);fill-opacity:1;" d="M 42.855469 13.964844 L 1.105469 37.996094 C 0.765625 37.355469 0.59375 36.632812 0.609375 35.90625 L 0.609375 16.097656 C 0.609375 14.492188 1.289062 13.261719 2.679688 12.453125 C 6.0625 10.496094 17.410156 3.992188 19.675781 2.660156 C 21.199219 1.761719 22.6875 1.726562 24.222656 2.613281 C 29.914062 5.898438 35.609375 9.179688 41.308594 12.457031 C 41.949219 12.8125 42.484375 13.332031 42.855469 13.964844 Z M 42.855469 13.964844 "/>
<path style=" stroke:none;fill-rule:nonzero;fill:rgb(100%,100%,100%);fill-opacity:1;" d="M 22.820312 34 C 19.957031 34.003906 17.320312 32.453125 15.9375 29.949219 C 15.867188 29.824219 15.800781 29.699219 15.738281 29.570312 C 14.003906 25.992188 15.222656 21.683594 18.574219 19.542969 C 21.925781 17.398438 26.351562 18.097656 28.878906 21.167969 C 28.984375 21.292969 29.074219 21.425781 29.179688 21.558594 C 29.226562 21.625 29.273438 21.6875 29.316406 21.757812 L 36.214844 17.785156 C 36.046875 17.515625 35.871094 17.253906 35.6875 17 C 35.59375 16.867188 35.492188 16.734375 35.398438 16.609375 C 30.425781 10.160156 21.347656 8.574219 14.480469 12.957031 C 7.613281 17.339844 5.242188 26.234375 9.011719 33.449219 C 9.078125 33.578125 9.148438 33.699219 9.207031 33.824219 C 11.925781 38.613281 16.957031 41.632812 22.46875 41.777344 C 27.976562 41.921875 33.160156 39.175781 36.128906 34.535156 L 29.382812 30.460938 C 27.933594 32.671875 25.464844 34.003906 22.820312 34 Z M 22.820312 34 "/>
</g>
</svg>
