<?xml version="1.0" encoding="UTF-8"?>
<svg xmlns="http://www.w3.org/2000/svg" xmlns:xlink="http://www.w3.org/1999/xlink" width="44px" height="50px" viewBox="0 0 44 49" version="1.1">
<g id="surface1">
<path style=" stroke:none;fill-rule:nonzero;fill:rgb(36.078431%,55.294118%,73.72549%);fill-opacity:1;" d="M 43.925781 14.414062 C 43.925781 13.589844 43.746094 12.863281 43.390625 12.242188 C 43.035156 11.628906 42.507812 11.117188 41.800781 10.710938 C 35.953125 7.371094 30.097656 4.042969 24.25 0.703125 C 22.675781 -0.199219 21.148438 -0.164062 19.582031 0.75 C 17.253906 2.109375 5.601562 8.714844 2.128906 10.707031 C 0.699219 11.527344 0.00390625 12.78125 0.00390625 14.410156 C 0 21.125 0.00390625 27.835938 0 34.546875 C 0 35.351562 0.171875 36.0625 0.511719 36.675781 C 0.867188 37.308594 1.402344 37.835938 2.125 38.25 C 5.601562 40.242188 17.253906 46.851562 19.582031 48.210938 C 21.148438 49.125 22.675781 49.15625 24.253906 48.253906 C 30.097656 44.914062 35.953125 41.585938 41.800781 38.25 C 42.527344 37.835938 43.0625 37.304688 43.414062 36.675781 C 43.757812 36.0625 43.929688 35.351562 43.929688 34.546875 C 43.929688 34.546875 43.929688 21.125 43.925781 14.414062 "/>
<path style=" stroke:none;fill-rule:nonzero;fill:rgb(10.196078%,27.45098%,45.490196%);fill-opacity:1;" d="M 22.03125 24.414062 L 0.511719 36.675781 C 0.867188 37.308594 1.402344 37.835938 2.125 38.25 C 5.601562 40.242188 17.253906 46.851562 19.582031 48.210938 C 21.148438 49.125 22.675781 49.15625 24.253906 48.253906 C 30.097656 44.914062 35.953125 41.585938 41.800781 38.25 C 42.527344 37.835938 43.0625 37.304688 43.414062 36.675781 L 22.03125 24.414062 "/>
<path style=" stroke:none;fill-rule:nonzero;fill:rgb(10.196078%,27.45098%,45.490196%);fill-opacity:1;" d="M 15.65625 28.046875 C 16.910156 30.210938 19.265625 31.667969 21.964844 31.667969 C 24.679688 31.667969 27.046875 30.191406 28.292969 28.003906 L 22.03125 24.414062 L 15.65625 28.046875 "/>
<path style=" stroke:none;fill-rule:nonzero;fill:rgb(10.588235%,34.901961%,55.686275%);fill-opacity:1;" d="M 43.925781 14.414062 C 43.925781 13.589844 43.746094 12.863281 43.390625 12.242188 L 22.03125 24.414062 L 43.414062 36.675781 C 43.757812 36.0625 43.929688 35.351562 43.929688 34.546875 C 43.929688 34.546875 43.929688 21.125 43.925781 14.414062 "/>
<path style=" stroke:none;fill-rule:nonzero;fill:rgb(100%,100%,100%);fill-opacity:1;" d="M 42.75 25.289062 L 41.078125 25.289062 L 41.078125 26.945312 L 39.40625 26.945312 L 39.40625 25.289062 L 37.738281 25.289062 L 37.738281 23.636719 L 39.40625 23.636719 L 39.40625 21.984375 L 41.078125 21.984375 L 41.078125 23.636719 L 42.75 23.636719 L 42.75 25.289062 M 36.652344 25.289062 L 34.980469 25.289062 L 34.980469 26.945312 L 33.3125 26.945312 L 33.3125 25.289062 L 31.640625 25.289062 L 31.640625 23.636719 L 33.3125 23.636719 L 33.3125 21.984375 L 34.980469 21.984375 L 34.980469 23.636719 L 36.652344 23.636719 L 36.652344 25.289062 "/>
<path style=" stroke:none;fill-rule:nonzero;fill:rgb(100%,100%,100%);fill-opacity:1;" d="M 28.292969 28.003906 C 27.046875 30.191406 24.679688 31.667969 21.964844 31.667969 C 19.265625 31.667969 16.910156 30.210938 15.65625 28.046875 C 15.027344 26.960938 14.699219 25.730469 14.699219 24.480469 C 14.699219 20.507812 17.953125 17.289062 21.964844 17.289062 C 24.648438 17.289062 26.988281 18.730469 28.246094 20.871094 L 34.597656 17.253906 C 32.070312 12.941406 27.359375 10.039062 21.964844 10.039062 C 13.90625 10.039062 7.375 16.503906 7.375 24.480469 C 7.375 27.09375 8.078125 29.546875 9.308594 31.664062 C 11.824219 36 16.550781 38.917969 21.964844 38.917969 C 27.386719 38.917969 32.121094 35.988281 34.632812 31.640625 L 28.292969 28.003906 "/>
</g>
</svg>
