<?xml version="1.0" encoding="UTF-8"?>
<svg xmlns="http://www.w3.org/2000/svg" xmlns:xlink="http://www.w3.org/1999/xlink" width="50px" height="50px" viewBox="0 0 50 49" version="1.1">
<defs>
<linearGradient id="linear0" gradientUnits="userSpaceOnUse" x1="0.12959" y1="0.12039" x2="0.79639" y2="0.78201" gradientTransform="matrix(36.96875,0,0,36.46875,0.0273438,0.015625)">
<stop offset="0" style="stop-color:rgb(21.960784%,49.411765%,72.156863%);stop-opacity:1;"/>
<stop offset="1" style="stop-color:rgb(21.176471%,41.176471%,58.039216%);stop-opacity:1;"/>
</linearGradient>
<linearGradient id="linear1" gradientUnits="userSpaceOnUse" x1="0.19128" y1="0.20579" x2="0.90742" y2="0.88429" gradientTransform="matrix(36.964844,0,0,36.46875,12.9375,12.363281)">
<stop offset="0" style="stop-color:rgb(100%,87.843137%,32.156863%);stop-opacity:1;"/>
<stop offset="1" style="stop-color:rgb(100%,76.470588%,19.215686%);stop-opacity:1;"/>
</linearGradient>
</defs>
<g id="surface1">
<path style=" stroke:none;fill-rule:nonzero;fill:url(#linear0);" d="M 24.785156 0.015625 C 12.125 0.015625 12.914062 5.417969 12.914062 5.417969 L 12.929688 11.011719 L 25.011719 11.011719 L 25.011719 12.695312 L 8.128906 12.695312 C 8.128906 12.695312 0.0273438 11.789062 0.0273438 24.359375 C 0.0273438 36.929688 7.101562 36.484375 7.101562 36.484375 L 11.320312 36.484375 L 11.320312 30.652344 C 11.320312 30.652344 11.09375 23.691406 18.277344 23.691406 L 30.261719 23.691406 C 30.261719 23.691406 36.996094 23.800781 36.996094 17.289062 L 36.996094 6.527344 C 36.996094 6.527344 38.019531 0.015625 24.785156 0.015625 Z M 18.125 3.777344 C 18.699219 3.777344 19.253906 4.003906 19.660156 4.402344 C 20.070312 4.804688 20.296875 5.347656 20.296875 5.917969 C 20.296875 6.484375 20.070312 7.027344 19.660156 7.429688 C 19.253906 7.832031 18.699219 8.054688 18.125 8.054688 C 17.546875 8.054688 16.992188 7.832031 16.585938 7.429688 C 16.179688 7.027344 15.949219 6.484375 15.949219 5.917969 C 15.949219 5.347656 16.179688 4.804688 16.585938 4.402344 C 16.992188 4.003906 17.546875 3.777344 18.125 3.777344 Z M 18.125 3.777344 "/>
<path style=" stroke:none;fill-rule:nonzero;fill:url(#linear1);" d="M 25.144531 48.832031 C 37.808594 48.832031 37.015625 43.429688 37.015625 43.429688 L 37.003906 37.832031 L 24.917969 37.832031 L 24.917969 36.152344 L 41.800781 36.152344 C 41.800781 36.152344 49.902344 37.054688 49.902344 24.484375 C 49.902344 11.914062 42.832031 12.363281 42.832031 12.363281 L 38.609375 12.363281 L 38.609375 18.195312 C 38.609375 18.195312 38.839844 25.152344 31.652344 25.152344 L 19.667969 25.152344 C 19.667969 25.152344 12.9375 25.046875 12.9375 31.554688 L 12.9375 42.320312 C 12.9375 42.320312 11.914062 48.832031 25.144531 48.832031 Z M 31.808594 45.070312 C 31.230469 45.070312 30.679688 44.84375 30.269531 44.441406 C 29.863281 44.042969 29.632812 43.496094 29.632812 42.929688 C 29.632812 42.363281 29.863281 41.816406 30.269531 41.417969 C 30.679688 41.015625 31.230469 40.789062 31.808594 40.789062 C 32.382812 40.789062 32.9375 41.015625 33.34375 41.417969 C 33.753906 41.816406 33.980469 42.363281 33.980469 42.929688 C 33.980469 43.496094 33.753906 44.042969 33.34375 44.441406 C 32.9375 44.84375 32.382812 45.070312 31.808594 45.066406 Z M 31.808594 45.070312 "/>
</g>
</svg>
