<?xml version="1.0" encoding="UTF-8"?>
<svg xmlns="http://www.w3.org/2000/svg" xmlns:xlink="http://www.w3.org/1999/xlink" width="50px" height="51px" viewBox="0 0 51 36" version="1.1">
<g id="surface1">
<path style=" stroke:none;fill-rule:nonzero;fill:rgb(0%,63.137255%,87.843137%);fill-opacity:1;" d="M 21.222656 3.925781 C 22.867188 2.199219 25.15625 1.128906 27.691406 1.128906 C 31.058594 1.128906 33.996094 3.019531 35.558594 5.832031 C 36.917969 5.21875 38.421875 4.878906 40.003906 4.878906 C 46.078125 4.878906 51 9.886719 51 16.0625 C 51 22.238281 46.078125 27.246094 40.003906 27.246094 C 39.277344 27.246094 38.550781 27.171875 37.839844 27.027344 C 36.460938 29.507812 33.835938 31.179688 30.824219 31.179688 C 29.5625 31.179688 28.371094 30.886719 27.308594 30.363281 C 25.910156 33.675781 22.660156 36 18.867188 36 C 14.917969 36 11.554688 33.480469 10.261719 29.945312 C 9.699219 30.066406 9.113281 30.128906 8.511719 30.128906 C 3.8125 30.128906 0 26.246094 0 21.457031 C 0 18.246094 1.710938 15.441406 4.257812 13.945312 C 3.734375 12.726562 3.441406 11.386719 3.441406 9.976562 C 3.441406 4.46875 7.875 0 13.347656 0 C 16.558594 0 19.414062 1.542969 21.222656 3.925781 "/>
<path style=" stroke:none;fill-rule:nonzero;fill:rgb(100%,100%,100%);fill-opacity:1;" d="M 7.386719 18.667969 C 7.355469 18.753906 7.398438 18.769531 7.410156 18.785156 C 7.503906 18.855469 7.601562 18.90625 7.699219 18.960938 C 8.21875 19.242188 8.710938 19.320312 9.226562 19.320312 C 10.269531 19.320312 10.921875 18.761719 10.921875 17.859375 L 10.921875 17.839844 C 10.921875 17.003906 10.1875 16.703125 9.5 16.484375 L 9.410156 16.453125 C 8.890625 16.285156 8.445312 16.136719 8.445312 15.792969 L 8.445312 15.773438 C 8.445312 15.480469 8.707031 15.261719 9.109375 15.261719 C 9.5625 15.261719 10.097656 15.414062 10.441406 15.605469 C 10.441406 15.605469 10.542969 15.671875 10.578125 15.574219 C 10.597656 15.519531 10.773438 15.046875 10.792969 14.996094 C 10.8125 14.941406 10.777344 14.898438 10.742188 14.875 C 10.347656 14.636719 9.804688 14.472656 9.242188 14.472656 L 9.136719 14.472656 C 8.179688 14.472656 7.511719 15.054688 7.511719 15.890625 L 7.511719 15.910156 C 7.511719 16.789062 8.25 17.074219 8.941406 17.273438 L 9.050781 17.308594 C 9.554688 17.464844 9.988281 17.597656 9.988281 17.957031 L 9.988281 17.972656 C 9.988281 18.300781 9.707031 18.542969 9.25 18.542969 C 9.074219 18.542969 8.511719 18.539062 7.902344 18.152344 C 7.832031 18.109375 7.789062 18.078125 7.730469 18.042969 C 7.699219 18.023438 7.625 17.992188 7.59375 18.089844 Z M 22.703125 18.667969 C 22.671875 18.753906 22.714844 18.769531 22.722656 18.785156 C 22.820312 18.855469 22.917969 18.90625 23.015625 18.960938 C 23.535156 19.242188 24.027344 19.320312 24.539062 19.320312 C 25.585938 19.320312 26.234375 18.761719 26.234375 17.859375 L 26.234375 17.839844 C 26.234375 17.003906 25.503906 16.703125 24.816406 16.484375 L 24.726562 16.453125 C 24.207031 16.285156 23.757812 16.136719 23.757812 15.792969 L 23.757812 15.773438 C 23.757812 15.480469 24.019531 15.261719 24.425781 15.261719 C 24.875 15.261719 25.410156 15.414062 25.753906 15.605469 C 25.753906 15.605469 25.855469 15.671875 25.894531 15.574219 C 25.914062 15.519531 26.089844 15.046875 26.105469 14.996094 C 26.125 14.941406 26.089844 14.898438 26.054688 14.875 C 25.664062 14.636719 25.117188 14.472656 24.558594 14.472656 L 24.453125 14.472656 C 23.496094 14.472656 22.828125 15.054688 22.828125 15.890625 L 22.828125 15.910156 C 22.828125 16.789062 23.5625 17.074219 24.253906 17.273438 L 24.367188 17.308594 C 24.871094 17.464844 25.304688 17.597656 25.304688 17.957031 L 25.304688 17.972656 C 25.304688 18.300781 25.019531 18.542969 24.566406 18.542969 C 24.390625 18.542969 23.828125 18.539062 23.21875 18.152344 C 23.144531 18.109375 23.101562 18.078125 23.046875 18.042969 C 23.027344 18.03125 22.9375 17.996094 22.910156 18.089844 Z M 33.15625 16.898438 C 33.15625 17.410156 33.0625 17.8125 32.878906 18.097656 C 32.691406 18.378906 32.414062 18.515625 32.027344 18.515625 C 31.636719 18.515625 31.363281 18.378906 31.179688 18.097656 C 30.996094 17.8125 30.90625 17.410156 30.90625 16.898438 C 30.90625 16.390625 30.996094 15.988281 31.179688 15.707031 C 31.363281 15.429688 31.636719 15.292969 32.027344 15.292969 C 32.414062 15.292969 32.691406 15.429688 32.878906 15.707031 C 33.0625 15.988281 33.15625 16.390625 33.15625 16.898438 M 34.03125 15.953125 C 33.945312 15.660156 33.8125 15.402344 33.632812 15.1875 C 33.457031 14.972656 33.230469 14.800781 32.960938 14.671875 C 32.695312 14.546875 32.378906 14.484375 32.027344 14.484375 C 31.671875 14.484375 31.355469 14.546875 31.089844 14.671875 C 30.824219 14.800781 30.597656 14.972656 30.417969 15.1875 C 30.242188 15.402344 30.109375 15.660156 30.023438 15.953125 C 29.9375 16.242188 29.894531 16.5625 29.894531 16.898438 C 29.894531 17.238281 29.9375 17.554688 30.023438 17.847656 C 30.109375 18.136719 30.242188 18.394531 30.421875 18.609375 C 30.597656 18.824219 30.824219 19 31.089844 19.121094 C 31.359375 19.242188 31.671875 19.304688 32.027344 19.304688 C 32.382812 19.304688 32.695312 19.242188 32.960938 19.121094 C 33.230469 19 33.457031 18.824219 33.632812 18.609375 C 33.8125 18.394531 33.945312 18.136719 34.03125 17.847656 C 34.117188 17.554688 34.160156 17.234375 34.160156 16.898438 C 34.160156 16.5625 34.117188 16.242188 34.03125 15.953125 M 41.203125 18.378906 C 41.171875 18.292969 41.089844 18.324219 41.089844 18.324219 C 40.964844 18.375 40.828125 18.417969 40.683594 18.441406 C 40.539062 18.464844 40.378906 18.476562 40.207031 18.476562 C 39.78125 18.476562 39.445312 18.351562 39.207031 18.097656 C 38.964844 17.847656 38.832031 17.445312 38.832031 16.894531 C 38.832031 16.398438 38.953125 16.023438 39.167969 15.734375 C 39.378906 15.453125 39.703125 15.304688 40.136719 15.304688 C 40.496094 15.304688 40.769531 15.347656 41.058594 15.4375 C 41.058594 15.4375 41.128906 15.46875 41.160156 15.378906 C 41.238281 15.164062 41.292969 15.011719 41.375 14.777344 C 41.398438 14.710938 41.339844 14.679688 41.320312 14.671875 C 41.207031 14.628906 40.941406 14.554688 40.738281 14.523438 C 40.550781 14.496094 40.328125 14.480469 40.082031 14.480469 C 39.714844 14.480469 39.390625 14.542969 39.109375 14.667969 C 38.832031 14.792969 38.59375 14.96875 38.40625 15.183594 C 38.21875 15.398438 38.078125 15.65625 37.980469 15.949219 C 37.886719 16.238281 37.839844 16.558594 37.839844 16.894531 C 37.839844 17.625 38.035156 18.214844 38.421875 18.648438 C 38.804688 19.082031 39.386719 19.304688 40.144531 19.304688 C 40.589844 19.304688 41.050781 19.210938 41.378906 19.082031 C 41.378906 19.082031 41.445312 19.050781 41.417969 18.976562 Z M 42.730469 16.410156 C 42.769531 16.125 42.847656 15.890625 42.96875 15.707031 C 43.148438 15.429688 43.425781 15.273438 43.8125 15.273438 C 44.203125 15.273438 44.457031 15.429688 44.640625 15.707031 C 44.765625 15.890625 44.816406 16.136719 44.839844 16.410156 Z M 45.667969 15.785156 C 45.59375 15.503906 45.410156 15.21875 45.292969 15.089844 C 45.101562 14.882812 44.914062 14.738281 44.730469 14.65625 C 44.488281 14.554688 44.199219 14.484375 43.882812 14.484375 C 43.515625 14.484375 43.179688 14.546875 42.90625 14.675781 C 42.636719 14.804688 42.40625 14.980469 42.226562 15.199219 C 42.046875 15.417969 41.914062 15.679688 41.828125 15.972656 C 41.738281 16.265625 41.695312 16.585938 41.695312 16.925781 C 41.695312 17.269531 41.742188 17.589844 41.832031 17.875 C 41.921875 18.167969 42.066406 18.421875 42.257812 18.632812 C 42.453125 18.847656 42.703125 19.015625 43.003906 19.132812 C 43.300781 19.246094 43.660156 19.308594 44.074219 19.304688 C 44.929688 19.304688 45.378906 19.109375 45.5625 19.007812 C 45.597656 18.988281 45.628906 18.957031 45.589844 18.863281 L 45.394531 18.320312 C 45.367188 18.238281 45.285156 18.269531 45.285156 18.269531 C 45.074219 18.347656 44.773438 18.488281 44.070312 18.488281 C 43.613281 18.488281 43.273438 18.351562 43.058594 18.136719 C 42.839844 17.917969 42.734375 17.597656 42.714844 17.144531 L 45.671875 17.148438 C 45.671875 17.148438 45.75 17.148438 45.757812 17.070312 C 45.761719 17.039062 45.859375 16.457031 45.667969 15.785156 M 19.054688 16.410156 C 19.097656 16.125 19.175781 15.890625 19.292969 15.707031 C 19.476562 15.429688 19.75 15.273438 20.140625 15.273438 C 20.527344 15.273438 20.785156 15.429688 20.96875 15.707031 C 21.089844 15.890625 21.144531 16.136719 21.164062 16.410156 Z M 21.996094 15.785156 C 21.921875 15.503906 21.738281 15.21875 21.617188 15.089844 C 21.425781 14.882812 21.242188 14.738281 21.054688 14.65625 C 20.816406 14.554688 20.527344 14.484375 20.210938 14.484375 C 19.839844 14.484375 19.503906 14.546875 19.234375 14.675781 C 18.960938 14.804688 18.730469 14.980469 18.550781 15.199219 C 18.375 15.417969 18.238281 15.679688 18.152344 15.972656 C 18.066406 16.265625 18.023438 16.585938 18.023438 16.925781 C 18.023438 17.269531 18.066406 17.589844 18.15625 17.875 C 18.246094 18.167969 18.390625 18.421875 18.585938 18.632812 C 18.78125 18.847656 19.03125 19.015625 19.328125 19.132812 C 19.625 19.246094 19.988281 19.308594 20.402344 19.304688 C 21.253906 19.304688 21.703125 19.109375 21.890625 19.007812 C 21.921875 18.988281 21.953125 18.957031 21.914062 18.863281 L 21.722656 18.320312 C 21.691406 18.238281 21.609375 18.269531 21.609375 18.269531 C 21.398438 18.347656 21.097656 18.488281 20.398438 18.488281 C 19.9375 18.488281 19.597656 18.351562 19.386719 18.136719 C 19.167969 17.917969 19.0625 17.597656 19.042969 17.144531 L 21.996094 17.148438 C 21.996094 17.148438 22.074219 17.148438 22.082031 17.070312 C 22.085938 17.039062 22.183594 16.457031 21.996094 15.785156 M 12.664062 18.363281 C 12.550781 18.269531 12.535156 18.246094 12.496094 18.183594 C 12.4375 18.09375 12.40625 17.964844 12.40625 17.796875 C 12.40625 17.535156 12.492188 17.347656 12.671875 17.21875 C 12.667969 17.222656 12.925781 16.996094 13.527344 17.003906 C 13.953125 17.011719 14.332031 17.074219 14.332031 17.074219 L 14.332031 18.429688 C 14.332031 18.429688 13.957031 18.511719 13.53125 18.535156 C 12.929688 18.574219 12.664062 18.359375 12.664062 18.363281 M 13.84375 16.265625 C 13.722656 16.257812 13.566406 16.253906 13.378906 16.253906 C 13.128906 16.253906 12.882812 16.285156 12.652344 16.347656 C 12.421875 16.410156 12.214844 16.507812 12.035156 16.636719 C 11.855469 16.765625 11.710938 16.933594 11.605469 17.128906 C 11.503906 17.324219 11.449219 17.554688 11.449219 17.816406 C 11.449219 18.078125 11.492188 18.308594 11.585938 18.496094 C 11.675781 18.683594 11.804688 18.839844 11.96875 18.960938 C 12.132812 19.082031 12.335938 19.171875 12.570312 19.226562 C 12.804688 19.277344 13.066406 19.304688 13.355469 19.304688 C 13.65625 19.304688 13.960938 19.28125 14.253906 19.230469 C 14.542969 19.179688 14.898438 19.109375 14.996094 19.085938 C 15.066406 19.066406 15.136719 19.050781 15.203125 19.03125 C 15.277344 19.011719 15.273438 18.933594 15.273438 18.933594 L 15.269531 16.207031 C 15.269531 15.609375 15.113281 15.167969 14.800781 14.890625 C 14.488281 14.617188 14.03125 14.480469 13.441406 14.480469 C 13.222656 14.480469 12.863281 14.511719 12.652344 14.554688 C 12.652344 14.554688 12.003906 14.679688 11.738281 14.890625 C 11.738281 14.890625 11.679688 14.925781 11.710938 15.007812 L 11.921875 15.574219 C 11.949219 15.648438 12.019531 15.625 12.019531 15.625 C 12.019531 15.625 12.039062 15.613281 12.066406 15.597656 C 12.636719 15.289062 13.355469 15.296875 13.355469 15.296875 C 13.675781 15.296875 13.921875 15.359375 14.085938 15.488281 C 14.246094 15.613281 14.328125 15.800781 14.328125 16.199219 L 14.328125 16.324219 C 14.074219 16.289062 13.84375 16.265625 13.84375 16.265625 M 37.683594 14.730469 C 37.707031 14.664062 37.660156 14.632812 37.640625 14.625 C 37.589844 14.605469 37.339844 14.550781 37.144531 14.539062 C 36.773438 14.515625 36.566406 14.578125 36.382812 14.664062 C 36.199219 14.746094 35.996094 14.882812 35.882812 15.035156 L 35.882812 14.671875 C 35.882812 14.621094 35.847656 14.582031 35.796875 14.582031 L 35.039062 14.582031 C 34.992188 14.582031 34.953125 14.621094 34.953125 14.671875 L 34.953125 19.117188 C 34.953125 19.167969 34.996094 19.207031 35.042969 19.207031 L 35.820312 19.207031 C 35.871094 19.207031 35.910156 19.167969 35.910156 19.117188 L 35.910156 16.894531 C 35.910156 16.597656 35.945312 16.300781 36.007812 16.113281 C 36.074219 15.929688 36.160156 15.78125 36.269531 15.675781 C 36.375 15.570312 36.5 15.496094 36.632812 15.453125 C 36.769531 15.410156 36.921875 15.398438 37.03125 15.398438 C 37.183594 15.398438 37.355469 15.4375 37.355469 15.4375 C 37.410156 15.445312 37.441406 15.410156 37.460938 15.355469 C 37.511719 15.222656 37.65625 14.8125 37.683594 14.730469 "/>
<path style=" stroke:none;fill-rule:nonzero;fill:rgb(100%,100%,100%);fill-opacity:1;" d="M 30.394531 12.671875 C 30.300781 12.640625 30.214844 12.621094 30.101562 12.601562 C 29.988281 12.578125 29.855469 12.570312 29.699219 12.570312 C 29.164062 12.570312 28.746094 12.722656 28.449219 13.023438 C 28.15625 13.320312 27.953125 13.777344 27.855469 14.375 L 27.816406 14.578125 L 27.148438 14.578125 C 27.148438 14.578125 27.066406 14.574219 27.046875 14.664062 L 26.9375 15.285156 C 26.929688 15.34375 26.957031 15.378906 27.035156 15.378906 L 27.6875 15.378906 L 27.023438 19.109375 C 26.972656 19.410156 26.914062 19.65625 26.847656 19.84375 C 26.78125 20.027344 26.71875 20.167969 26.640625 20.269531 C 26.566406 20.367188 26.496094 20.4375 26.371094 20.480469 C 26.269531 20.511719 26.152344 20.53125 26.023438 20.53125 C 25.953125 20.53125 25.855469 20.519531 25.785156 20.503906 C 25.714844 20.488281 25.679688 20.472656 25.625 20.449219 C 25.625 20.449219 25.550781 20.421875 25.519531 20.5 C 25.496094 20.5625 25.320312 21.046875 25.300781 21.105469 C 25.28125 21.164062 25.308594 21.210938 25.347656 21.222656 C 25.433594 21.253906 25.496094 21.273438 25.617188 21.304688 C 25.78125 21.34375 25.917969 21.34375 26.050781 21.34375 C 26.320312 21.34375 26.570312 21.304688 26.773438 21.230469 C 26.980469 21.15625 27.160156 21.023438 27.320312 20.847656 C 27.492188 20.65625 27.601562 20.453125 27.703125 20.179688 C 27.808594 19.910156 27.894531 19.570312 27.964844 19.179688 L 28.632812 15.378906 L 29.605469 15.378906 C 29.605469 15.378906 29.6875 15.382812 29.703125 15.292969 L 29.8125 14.671875 C 29.820312 14.613281 29.796875 14.578125 29.71875 14.578125 L 28.773438 14.578125 C 28.777344 14.554688 28.820312 14.21875 28.929688 13.902344 C 28.976562 13.769531 29.0625 13.660156 29.136719 13.585938 C 29.207031 13.511719 29.292969 13.460938 29.382812 13.429688 C 29.476562 13.398438 29.582031 13.386719 29.699219 13.386719 C 29.789062 13.386719 29.878906 13.394531 29.941406 13.410156 C 30.035156 13.429688 30.070312 13.4375 30.09375 13.445312 C 30.191406 13.476562 30.203125 13.449219 30.222656 13.402344 L 30.449219 12.773438 C 30.472656 12.707031 30.414062 12.679688 30.394531 12.671875 M 17.1875 19.117188 C 17.1875 19.167969 17.152344 19.207031 17.105469 19.207031 L 16.320312 19.207031 C 16.269531 19.207031 16.234375 19.167969 16.234375 19.117188 L 16.234375 12.757812 C 16.234375 12.707031 16.269531 12.664062 16.320312 12.664062 L 17.105469 12.664062 C 17.152344 12.664062 17.1875 12.707031 17.1875 12.757812 Z M 17.1875 19.117188 "/>
</g>
</svg>
