<?xml version="1.0" encoding="UTF-8"?>
<svg xmlns="http://www.w3.org/2000/svg" xmlns:xlink="http://www.w3.org/1999/xlink" width="50px" height="50px" viewBox="0 0 50 50" version="1.1">
<g id="surface1">
<path style=" stroke:none;fill-rule:nonzero;fill:rgb(0%,73.72549%,94.901961%);fill-opacity:1;" d="M 22.03125 49.96875 C 17.351562 49.628906 12.726562 48.453125 9.890625 46.875 C 8.273438 45.976562 7.042969 44.875 6.558594 43.890625 L 6.269531 43.304688 L 6.269531 6.578125 L 6.5 6.117188 C 7.515625 4.050781 10.757812 2.191406 15.289062 1.074219 C 16.824219 0.695312 19.042969 0.320312 20.855469 0.128906 C 22.703125 -0.0664062 27.601562 -0.0351562 29.445312 0.183594 C 34.347656 0.757812 38.515625 2.046875 41.085938 3.78125 C 42.078125 4.449219 43.09375 5.519531 43.441406 6.253906 L 43.734375 6.886719 L 43.710938 25.191406 L 43.683594 43.5 L 43.449219 43.980469 C 43.316406 44.246094 42.921875 44.769531 42.570312 45.140625 C 40.433594 47.40625 35.851562 49.082031 29.839844 49.796875 C 28.613281 49.941406 23.289062 50.058594 22.03125 49.96875 Z M 30.65625 34.234375 C 30.640625 34.1875 29.9375 33.5625 29.101562 32.847656 C 28.265625 32.132812 27.542969 31.515625 27.5 31.472656 C 27.457031 31.433594 27.609375 31.289062 27.84375 31.152344 C 28.078125 31.015625 28.523438 30.632812 28.835938 30.304688 C 29.75 29.347656 30.183594 28.164062 30.183594 26.609375 C 30.183594 25.082031 29.71875 23.851562 28.785156 22.910156 C 27.84375 21.960938 26.765625 21.554688 25.195312 21.554688 C 22.773438 21.554688 20.914062 22.964844 20.320312 25.257812 C 20.117188 26.042969 20.117188 27.636719 20.324219 28.335938 C 20.859375 30.15625 22.316406 31.480469 24.128906 31.792969 C 24.746094 31.898438 24.828125 31.941406 25.246094 32.402344 C 25.496094 32.671875 26.003906 33.214844 26.378906 33.605469 L 27.0625 34.320312 L 28.875 34.320312 C 29.875 34.320312 30.675781 34.28125 30.65625 34.234375 Z M 24.4375 29.15625 C 24 28.929688 23.835938 28.75 23.585938 28.246094 C 23.394531 27.855469 23.363281 27.632812 23.359375 26.707031 C 23.359375 25.769531 23.386719 25.566406 23.589844 25.160156 C 23.917969 24.492188 24.371094 24.175781 25.070312 24.125 C 26.042969 24.054688 26.605469 24.535156 26.902344 25.683594 C 27.261719 27.09375 26.867188 28.589844 26 29.089844 C 25.542969 29.347656 24.863281 29.378906 24.4375 29.15625 Z M 16.398438 31.773438 C 18.300781 31.410156 19.378906 30.304688 19.378906 28.71875 C 19.378906 27.3125 18.683594 26.488281 16.757812 25.628906 C 15.65625 25.136719 15.257812 24.828125 15.257812 24.46875 C 15.257812 24.167969 15.636719 23.839844 16.078125 23.757812 C 16.507812 23.679688 17.648438 23.878906 18.324219 24.148438 L 18.890625 24.378906 L 18.890625 21.875 L 18.277344 21.738281 C 17.898438 21.652344 17.097656 21.605469 16.1875 21.605469 C 14.898438 21.605469 14.648438 21.636719 14.160156 21.832031 C 12.746094 22.394531 12.070312 23.351562 12.082031 24.792969 C 12.09375 26.144531 12.804688 26.984375 14.578125 27.742188 C 15.621094 28.191406 16.042969 28.53125 16.042969 28.933594 C 16.042969 29.789062 14.617188 29.890625 13.109375 29.148438 C 12.699219 28.945312 12.328125 28.761719 12.285156 28.742188 C 12.246094 28.722656 12.210938 29.304688 12.210938 30.042969 C 12.210938 31.371094 12.214844 31.378906 12.453125 31.46875 C 13.363281 31.816406 15.367188 31.96875 16.398438 31.773438 Z M 38.136719 30.539062 L 38.136719 29.410156 L 34.699219 29.410156 L 34.699219 21.652344 L 31.65625 21.652344 L 31.65625 31.667969 L 38.136719 31.667969 Z M 27.53125 10.75 C 30.554688 10.539062 32.824219 10.144531 34.816406 9.476562 C 36.804688 8.8125 37.980469 8.007812 38.242188 7.128906 C 38.34375 6.792969 38.335938 6.664062 38.195312 6.292969 C 37.5625 4.632812 34.019531 3.359375 28.605469 2.839844 C 26.289062 2.621094 22.078125 2.691406 19.871094 2.988281 C 16.503906 3.445312 13.769531 4.289062 12.554688 5.253906 C 10.09375 7.199219 12.695312 9.339844 18.742188 10.347656 C 21.363281 10.785156 24.761719 10.941406 27.53125 10.75 Z M 27.53125 10.75 "/>
</g>
</svg>
